<?xml version="1.0" encoding="utf-8"?>
<!-- Generator: Adobe Illustrator 27.2.0, SVG Export Plug-In . SVG Version: 6.00 Build 0)  -->
<svg version="1.1" id="Layer_1" xmlns="http://www.w3.org/2000/svg" xmlns:xlink="http://www.w3.org/1999/xlink" x="0px" y="0px"
	 viewBox="0 0 700 700" style="enable-background:new 0 0 700 700;" xml:space="preserve">
<style type="text/css">
	.st0{fill:#CE7645;}
</style>
<g>
	<path class="st0" d="M281,223.4c0-26.2-10.2-50.9-28.7-69.4l-48.8-48.8c-38.3-38.3-100.5-38.3-138.8,0
		c-86.1,86.1-86.1,226.3,0,312.5l217.6,217.6C324,677,379.5,700,438.5,700c59,0,114.5-23,156.2-64.7c18.5-18.5,28.7-43.2,28.7-69.4
		c0-26.2-10.2-50.8-28.7-69.4L546,447.7c-38.3-38.3-100.5-38.2-138.8,0c-14.2,14.2-37.3,14.2-51.5,0L252.2,344.3
		c-14.2-14.2-14.2-37.3,0-51.5C270.8,274.2,281,249.6,281,223.4L281,223.4z M320.3,483.1c33.7,33.7,88.5,33.7,122.2,0
		c18.8-18.7,49.4-18.7,68.1,0l48.7,48.7c9.1,9.1,14.1,21.2,14.1,34.1c0,12.9-5,24.9-14.1,34.1c-32.3,32.3-75.2,50.1-120.9,50.1
		s-88.6-17.8-120.9-50.1L100,382.3c-66.6-66.6-66.6-175.1,0-241.8c18.7-18.7,49.4-18.7,68.1,0l48.8,48.8
		c9.1,9.1,14.1,21.2,14.1,34.1s-5,24.9-14.1,34.1c-33.7,33.7-33.7,88.5,0,122.2L320.3,483.1L320.3,483.1z"/>
	<path class="st0" d="M352.1,0c-13.8,0-25,11.2-25,25s11.2,25,25,25c164.2,0,297.8,133.6,297.8,297.8c0,13.8,11.2,25,25,25
		s25-11.2,25-25C699.9,156.1,543.9,0,352.1,0L352.1,0z"/>
	<path class="st0" d="M520.8,347.8c0,13.8,11.2,25,25,25c13.8,0,25-11.2,25-25c0-120.6-98.1-218.7-218.7-218.7
		c-13.8,0-25,11.2-25,25s11.2,25,25,25C445.1,179.1,520.8,254.8,520.8,347.8z"/>
</g>
</svg>
