<?xml version="1.0" encoding="utf-8"?>
<!-- Generator: Adobe Illustrator 27.2.0, SVG Export Plug-In . SVG Version: 6.00 Build 0)  -->
<svg version="1.1" id="Layer_1" xmlns="http://www.w3.org/2000/svg" xmlns:xlink="http://www.w3.org/1999/xlink" x="0px" y="0px"
	 viewBox="0 0 700 700" style="enable-background:new 0 0 700 700;" xml:space="preserve">
<style type="text/css">
	.st0{fill:#CE7645;}
</style>
<g>
	<path class="st0" d="M65.1,92.1C29.3,92.1,0,125.3,0,165.8v368.4c0,40.5,29.3,73.7,65.1,73.7h569.8c35.8,0,65.1-33.2,65.1-73.7
		V165.8c0-40.5-29.3-73.7-65.1-73.7L65.1,92.1z M65.1,128.9h569.8c2.1,0,4.1,0.4,6.1,0.9L364.2,409.9c-6.9,7-21.6,7-28.5,0L59,129.8
		C61,129.4,63,128.9,65.1,128.9L65.1,128.9z M34.3,154.3l201.5,203.8L34.6,546.6c-1.1-3.8-2-8.1-2-12.4V165.8
		C32.6,161.7,33.3,157.9,34.3,154.3L34.3,154.3z M665.7,154.3c1,3.6,1.8,7.4,1.8,11.5v368.4c0,4.3-0.9,8.6-2,12.4L464.2,358.1
		L665.7,154.3L665.7,154.3z M260.5,383.1l53.7,54.1c20.4,20.6,51.4,20.6,71.7,0l53.7-54.1l200.2,187.7c-1.6,0.3-3.2,0.3-4.8,0.3
		H65.1c-1.7,0-3.2,0-4.8-0.3L260.5,383.1z"/>
</g>
</svg>
